<svg width="85" height="128" viewBox="0 0 85 128" fill="none" xmlns="http://www.w3.org/2000/svg">
<g clip-path="url(#clip0_1_2)">
<path fill-rule="evenodd" clip-rule="evenodd" d="M0 120.187V8C0 3.58172 3.58171 0 7.99999 0H50.496C52.6815 0 54.7719 0.894139 56.2813 2.47465L82.7854 30.2259C84.2068 31.7143 85 33.6932 85 35.7513V120.187C85 124.605 81.4183 128.187 77 128.187H8C3.58172 128.187 0 124.605 0 120.187ZM9.3209 57.1194C9.3209 54.9103 11.1118 53.1194 13.3209 53.1194H71.6791C73.8883 53.1194 75.6791 54.9103 75.6791 57.1194C75.6791 59.3285 73.8883 61.1194 71.6791 61.1194H13.3209C11.1118 61.1194 9.3209 59.3285 9.3209 57.1194ZM13.3209 77.0298C11.1118 77.0298 9.3209 78.8207 9.3209 81.0298C9.3209 83.239 11.1118 85.0298 13.3209 85.0298H71.6791C73.8883 85.0298 75.6791 83.239 75.6791 81.0298C75.6791 78.8207 73.8883 77.0298 71.6791 77.0298H13.3209ZM9.3209 103.612C9.3209 101.403 11.1118 99.6119 13.3209 99.6119H71.6791C73.8883 99.6119 75.6791 101.403 75.6791 103.612C75.6791 105.821 73.8883 107.612 71.6791 107.612H13.3209C11.1118 107.612 9.3209 105.821 9.3209 103.612ZM47.5746 12.8103V36.5224C47.5746 37.627 48.4701 38.5224 49.5746 38.5224H73.2056C74.9858 38.5224 75.8789 36.3715 74.6223 35.1106L50.9913 11.3985C49.7323 10.1353 47.5746 11.0268 47.5746 12.8103Z" fill="#aaa"/>
</g>
<defs>
<clipPath id="clip0_1_2">
<rect width="85" height="128" fill="white"/>
</clipPath>
</defs>
</svg>
