<svg xmlns="http://www.w3.org/2000/svg" viewBox="0 0 265 188.6"><defs><style>.a{opacity:0.05;}.b{fill:#d8d8d8;}.c{fill:#756b64;}.d{fill:#ffd927;}.e{fill:#b7b3b2;}</style></defs><ellipse class="a" cx="134" cy="178.1" rx="129" ry="10.5"/><rect class="b" x="59" y="122.6" width="11" height="56" rx="5.5"/><rect class="b" x="198" y="122.6" width="11" height="56" rx="5.5"/><path class="c" d="M375,301a12,12,0,0,0,12-12V278.4L370.9,301Z" transform="translate(-122 -171.4)"/><polygon class="c" points="112.2 40.6 48.9 129.6 77.1 129.6 140.5 40.6 112.2 40.6"/><path class="c" d="M184.3,212,126,293.8a12.1,12.1,0,0,0,11,7.2h12.2l63.3-89Z" transform="translate(-122 -171.4)"/><path class="c" d="M137,212a13.6,13.6,0,0,0-3,.4L125,225v39.7L162.5,212Z" transform="translate(-122 -171.4)"/><polygon class="c" points="162.2 40.6 98.9 129.6 127.1 129.6 190.5 40.6 162.2 40.6"/><polygon class="c" points="212.2 40.6 148.9 129.6 177.1 129.6 240.5 40.6 212.2 40.6"/><path class="c" d="M349.2,301,387,247.8V224a11.9,11.9,0,0,0-4.6-9.4L320.9,301Z" transform="translate(-122 -171.4)"/><polygon class="d" points="248.9 129.6 265 107 265 76.4 227.1 129.6 248.9 129.6"/><polygon class="d" points="90.5 40.6 27.1 129.6 48.9 129.6 112.2 40.6 90.5 40.6"/><polygon class="d" points="190.5 40.6 127.1 129.6 148.9 129.6 212.2 40.6 190.5 40.6"/><path class="d" d="M362.5,212l-63.3,89h21.7l61.5-86.4A11.9,11.9,0,0,0,375,212Z" transform="translate(-122 -171.4)"/><path class="d" d="M162.5,212,125,264.7V289a12.9,12.9,0,0,0,1,4.8L184.3,212Z" transform="translate(-122 -171.4)"/><polygon class="d" points="140.5 40.6 77.1 129.6 98.9 129.6 162.2 40.6 140.5 40.6"/><path class="d" d="M125,224v1l9-12.6A12.1,12.1,0,0,0,125,224Z" transform="translate(-122 -171.4)"/><path class="e" d="M122,179.2V173a1.6,1.6,0,0,1,.4-1.2,1,1,0,0,1,.9-.4,1.3,1.3,0,0,1,1,.4,2.1,2.1,0,0,1,.3,1.2v6.3a4.8,4.8,0,0,0,.3,1.8,1.5,1.5,0,0,0,.8,1.1,3,3,0,0,0,1.8.4,2.3,2.3,0,0,0,2.1-.8,3.8,3.8,0,0,0,.7-2.4V173a1.7,1.7,0,0,1,.3-1.2,1.1,1.1,0,0,1,.9-.4,1.2,1.2,0,0,1,1,.4,1.7,1.7,0,0,1,.4,1.2v6.2a9,9,0,0,1-.3,2.5,4.2,4.2,0,0,1-1.1,1.8,5.6,5.6,0,0,1-1.7.9,6.9,6.9,0,0,1-2.2.3,9.5,9.5,0,0,1-2.5-.3,4,4,0,0,1-1.8-1,5.5,5.5,0,0,1-1-1.7A9.5,9.5,0,0,1,122,179.2Z" transform="translate(-122 -171.4)"/><path class="e" d="M142,173l5,7.6v-7.7a1.6,1.6,0,0,1,.3-1.1,1,1,0,0,1,.9-.4,1.2,1.2,0,0,1,.9.4,1.6,1.6,0,0,1,.3,1.1V183c0,1.2-.5,1.7-1.4,1.7h-.7l-.5-.3-.4-.5-.5-.6-4.9-7.5v7.5a1.6,1.6,0,0,1-.3,1.1,1,1,0,0,1-.9.4,1.2,1.2,0,0,1-.9-.4,1.6,1.6,0,0,1-.3-1.1v-9.9a2.8,2.8,0,0,1,.1-1,2,2,0,0,1,.6-.7l.8-.2h.6l.5.3.4.5Z" transform="translate(-122 -171.4)"/><path class="e" d="M156.7,171.6h3.4a7.5,7.5,0,0,1,2.3.3,3.2,3.2,0,0,1,1.7.9,6.3,6.3,0,0,1,2.1,5.2,6.6,6.6,0,0,1-.3,2.1,4.8,4.8,0,0,1-.6,1.8,4.5,4.5,0,0,1-1.1,1.3,2.8,2.8,0,0,1-1.1.8l-1.3.4h-5l-1.1-.2-.5-.6c0-.3-.1-.6-.1-1v-9.5a1.9,1.9,0,0,1,.4-1.2A1.6,1.6,0,0,1,156.7,171.6Zm1,2.1v8.7h3l.8-.2.7-.4c.9-.7,1.3-2,1.3-3.8a5.7,5.7,0,0,0-.6-2.9,2.7,2.7,0,0,0-1.4-1.2l-2-.2Z" transform="translate(-122 -171.4)"/><path class="e" d="M179.8,173.6h-5.9v3.2h5.4a1.2,1.2,0,0,1,.9.3.8.8,0,0,1,.3.7.9.9,0,0,1-.3.7q-.1.3-.9.3h-5.4v3.6H180a1.2,1.2,0,0,1,.9.3.9.9,0,0,1,.4.8.8.8,0,0,1-.4.7,1.2,1.2,0,0,1-.9.3h-7.1a1.5,1.5,0,0,1-1.2-.4,1.7,1.7,0,0,1-.4-1.2v-9.7a2,2,0,0,1,.2-.9,1.2,1.2,0,0,1,.5-.5l.9-.2h6.9a1.2,1.2,0,0,1,.9.3.9.9,0,0,1,.3.7,1.1,1.1,0,0,1-.3.8Z" transform="translate(-122 -171.4)"/><path class="e" d="M189.7,179h-.9v4.1c0,.6-.1,1-.4,1.2a1,1,0,0,1-.9.4,1.3,1.3,0,0,1-1-.4,1.9,1.9,0,0,1-.3-1.2v-9.9a1.5,1.5,0,0,1,.4-1.2c.2-.3.6-.4,1.2-.4h5.7a2.4,2.4,0,0,1,1.2.3l1,.7a2.6,2.6,0,0,1,.7,1.1,3.2,3.2,0,0,1,.3,1.4,3.6,3.6,0,0,1-.8,2.3,6.5,6.5,0,0,1-2.5,1.2,3.3,3.3,0,0,1,1.3,1.1,15.8,15.8,0,0,1,1.2,1.5,5.1,5.1,0,0,1,.7,1.5,2.3,2.3,0,0,1,.3.9,1.1,1.1,0,0,1-.1.5l-.5.4h-.6a1.1,1.1,0,0,1-.8-.2c-.2-.1-.3-.3-.5-.5l-.6-.9-1-1.8a10.4,10.4,0,0,0-1-1.4,1.8,1.8,0,0,0-.9-.7Zm1.5-5.4h-2.4v3.5h3.9c.5-.2.8-.3,1-.6a1.8,1.8,0,0,0,.3-1.1,1.5,1.5,0,0,0-.2-.9,1.6,1.6,0,0,0-.8-.6A3.9,3.9,0,0,0,191.2,173.6Z" transform="translate(-122 -171.4)"/><path class="e" d="M220.4,180.4a3.9,3.9,0,0,1-.3,1.4,5.3,5.3,0,0,1-1,1.4,5,5,0,0,1-1.6,1.1,6.1,6.1,0,0,1-2.4.4,5,5,0,0,1-1.8-.2,3.4,3.4,0,0,1-1.5-.6,3.3,3.3,0,0,1-1.3-1.1l-.9-1.3a7.5,7.5,0,0,1-.5-1.6,11,11,0,0,1-.2-1.8,7.8,7.8,0,0,1,.5-2.8,5.7,5.7,0,0,1,1.3-2.1,5,5,0,0,1,1.9-1.3,5.3,5.3,0,0,1,2.5-.5,6,6,0,0,1,2.7.6,3.8,3.8,0,0,1,1.9,1.6,3.4,3.4,0,0,1,.7,1.7,1.2,1.2,0,0,1-1.1,1.1c-.4,0-.6,0-.8-.2l-.5-.8a6.5,6.5,0,0,0-1.2-1.5,3.3,3.3,0,0,0-1.7-.4,3.1,3.1,0,0,0-2.6,1.2,5.8,5.8,0,0,0-.9,3.5,6.2,6.2,0,0,0,.4,2.5,4.4,4.4,0,0,0,1.2,1.5,3.4,3.4,0,0,0,1.8.4,3,3,0,0,0,1.9-.5,3.7,3.7,0,0,0,1.2-1.7,2,2,0,0,1,.4-.8c.1-.2.4-.3.8-.3a1.3,1.3,0,0,1,.8.3A1.1,1.1,0,0,1,220.4,180.4Z" transform="translate(-122 -171.4)"/><path class="e" d="M231.3,171.4a7.1,7.1,0,0,1,3.4.8,5.4,5.4,0,0,1,2.2,2.3,7.8,7.8,0,0,1,.7,3.5,8.6,8.6,0,0,1-.4,2.8,4.5,4.5,0,0,1-1.2,2.1,4.6,4.6,0,0,1-2,1.3,5.4,5.4,0,0,1-2.7.5,5.9,5.9,0,0,1-2.7-.5,6.9,6.9,0,0,1-2-1.3,6.6,6.6,0,0,1-1.2-2.2,11,11,0,0,1-.4-2.7,7.6,7.6,0,0,1,.5-2.7,4.5,4.5,0,0,1,1.2-2.1,4.6,4.6,0,0,1,2-1.3A5.3,5.3,0,0,1,231.3,171.4ZM235,178a6,6,0,0,0-.5-2.4,3.4,3.4,0,0,0-1.3-1.6,3,3,0,0,0-1.9-.5,4,4,0,0,0-1.5.3,2.8,2.8,0,0,0-1.1.8,5.3,5.3,0,0,0-.8,1.5,10.1,10.1,0,0,0-.2,1.9,11.2,11.2,0,0,0,.2,2,5.3,5.3,0,0,0,.8,1.5l1.2.9,1.4.2a3.2,3.2,0,0,0,1.9-.5,3.2,3.2,0,0,0,1.3-1.5A6.7,6.7,0,0,0,235,178Z" transform="translate(-122 -171.4)"/><path class="e" d="M246.2,173l5,7.6v-7.7a1.6,1.6,0,0,1,.3-1.1,1,1,0,0,1,.9-.4,1.2,1.2,0,0,1,.9.4,1.6,1.6,0,0,1,.3,1.1V183c0,1.2-.5,1.7-1.4,1.7h-.7l-.5-.3a1,1,0,0,1-.4-.5l-.5-.6-4.9-7.5v7.5a1.6,1.6,0,0,1-.3,1.1,1.2,1.2,0,0,1-1.8,0,1.6,1.6,0,0,1-.3-1.1v-9.9a2.8,2.8,0,0,1,.1-1,1.3,1.3,0,0,1,.6-.7l.8-.2h.6l.5.3.4.5Z" transform="translate(-122 -171.4)"/><path class="e" d="M269.1,180.6a3.7,3.7,0,0,1-.6,2.1,3.8,3.8,0,0,1-1.8,1.5,7.2,7.2,0,0,1-2.7.5,6.3,6.3,0,0,1-3.2-.7,4.7,4.7,0,0,1-1.4-1.4,2.8,2.8,0,0,1-.5-1.7,1,1,0,0,1,1.1-1.1l.7.2a2.2,2.2,0,0,1,.5.8l.6,1.1a1.3,1.3,0,0,0,.8.6,2.5,2.5,0,0,0,1.3.3,3.6,3.6,0,0,0,1.9-.5,1.6,1.6,0,0,0,.7-1.4,1.2,1.2,0,0,0-.4-1,1.7,1.7,0,0,0-1-.6l-1.6-.5-2.4-.7a3.3,3.3,0,0,1-1.4-1.2,3.1,3.1,0,0,1-.6-1.9,3.3,3.3,0,0,1,.6-1.9,3.9,3.9,0,0,1,1.7-1.3,6.8,6.8,0,0,1,2.6-.4,6.4,6.4,0,0,1,2,.3,2.7,2.7,0,0,1,1.4.8,2.8,2.8,0,0,1,.9,1,2,2,0,0,1,.2,1,1.4,1.4,0,0,1-.3.9,1.2,1.2,0,0,1-.8.4.9.9,0,0,1-.7-.3l-.5-.7a2.4,2.4,0,0,0-.8-1.1,2.5,2.5,0,0,0-1.6-.4,3.1,3.1,0,0,0-1.7.4,1.3,1.3,0,0,0-.6,1.1,1.4,1.4,0,0,0,.2.6l.6.5c.3.1.5.3.8.3l1.2.4,2,.5a5.3,5.3,0,0,1,1.5.8,3.6,3.6,0,0,1,1,1.1A3.8,3.8,0,0,1,269.1,180.6Z" transform="translate(-122 -171.4)"/><path class="e" d="M282.6,173.8h-2.9v9.3a1.7,1.7,0,0,1-.3,1.2,1.3,1.3,0,0,1-1,.4,1,1,0,0,1-.9-.4c-.3-.2-.4-.6-.4-1.2v-9.3h-2.8a1.3,1.3,0,0,1-1-.3,1.2,1.2,0,0,1,0-1.6,1.3,1.3,0,0,1,1-.3h8.3a1.5,1.5,0,0,1,1,.3,1.2,1.2,0,0,1,0,1.6A1.7,1.7,0,0,1,282.6,173.8Z" transform="translate(-122 -171.4)"/><path class="e" d="M291.8,179h-.9v4.1a1.7,1.7,0,0,1-.3,1.2,1.3,1.3,0,0,1-1,.4,1,1,0,0,1-.9-.4,1.5,1.5,0,0,1-.4-1.2v-9.9a1.5,1.5,0,0,1,.4-1.2c.2-.3.6-.4,1.2-.4h5.8a2,2,0,0,1,1.1.3l1.1.7a4.1,4.1,0,0,1,.7,1.1,5.9,5.9,0,0,1,.2,1.4,3.6,3.6,0,0,1-.8,2.3,5.8,5.8,0,0,1-2.5,1.2,4.5,4.5,0,0,1,1.4,1.1l1.1,1.5a10.9,10.9,0,0,1,.8,1.5,5.1,5.1,0,0,1,.2.9,1.1,1.1,0,0,1-.1.5l-.5.4h-.6a1.1,1.1,0,0,1-.8-.2l-.5-.5-.6-.9-1-1.8a10.4,10.4,0,0,0-1-1.4,1.8,1.8,0,0,0-.9-.7Zm1.5-5.4h-2.4v3.5h3.9c.5-.2.8-.3,1-.6a1.8,1.8,0,0,0,.4-1.1,1.6,1.6,0,0,0-.3-.9,1.2,1.2,0,0,0-.8-.6A3.9,3.9,0,0,0,293.3,173.6Z" transform="translate(-122 -171.4)"/><path class="e" d="M303.7,179.2V173a1.6,1.6,0,0,1,.4-1.2,1,1,0,0,1,.9-.4,1.3,1.3,0,0,1,1,.4,2.1,2.1,0,0,1,.3,1.2v6.3a4.8,4.8,0,0,0,.3,1.8,1.5,1.5,0,0,0,.8,1.1,3,3,0,0,0,1.8.4,2.3,2.3,0,0,0,2.1-.8,3.8,3.8,0,0,0,.7-2.4V173a1.7,1.7,0,0,1,.3-1.2,1.1,1.1,0,0,1,.9-.4,1.2,1.2,0,0,1,1,.4,1.7,1.7,0,0,1,.4,1.2v6.2a9,9,0,0,1-.3,2.5,4.2,4.2,0,0,1-1.1,1.8,5.6,5.6,0,0,1-1.7.9,6.9,6.9,0,0,1-2.2.3,9.5,9.5,0,0,1-2.5-.3,4,4,0,0,1-1.8-1,5.5,5.5,0,0,1-1-1.7A9.5,9.5,0,0,1,303.7,179.2Z" transform="translate(-122 -171.4)"/><path class="e" d="M331.2,180.4a3.9,3.9,0,0,1-.3,1.4,8,8,0,0,1-.9,1.4,5.5,5.5,0,0,1-4,1.5,5.8,5.8,0,0,1-1.9-.2l-1.5-.6a3.3,3.3,0,0,1-1.3-1.1,5.7,5.7,0,0,1-.8-1.3,7.6,7.6,0,0,1-.6-1.6,10.9,10.9,0,0,1-.1-1.8,7.9,7.9,0,0,1,.4-2.8,5.7,5.7,0,0,1,1.3-2.1,5.3,5.3,0,0,1,2-1.3,4.7,4.7,0,0,1,2.4-.5,6.4,6.4,0,0,1,2.8.6,4.9,4.9,0,0,1,1.9,1.6,3.2,3.2,0,0,1,.6,1.7,1,1,0,0,1-1.1,1.1c-.3,0-.6,0-.7-.2a2.8,2.8,0,0,1-.6-.8,3.6,3.6,0,0,0-1.2-1.5,2.9,2.9,0,0,0-1.7-.4,2.9,2.9,0,0,0-2.5,1.2,5.2,5.2,0,0,0-1,3.5,6.2,6.2,0,0,0,.4,2.5,4.4,4.4,0,0,0,1.2,1.5,3.4,3.4,0,0,0,1.8.4,2.9,2.9,0,0,0,1.9-.5,3.7,3.7,0,0,0,1.2-1.7l.4-.8a1,1,0,0,1,.8-.3,1,1,0,0,1,1.1,1.1Z" transform="translate(-122 -171.4)"/><path class="e" d="M344.8,173.8H342v9.3c0,.6-.1,1-.4,1.2a1.2,1.2,0,0,1-1.8,0c-.3-.2-.4-.6-.4-1.2v-9.3h-2.9a1.7,1.7,0,0,1-1-.3,1.1,1.1,0,0,1-.3-.8.9.9,0,0,1,.4-.8,1.2,1.2,0,0,1,.9-.3h8.3a1.3,1.3,0,0,1,1,.3,1,1,0,0,1,0,1.6A1.3,1.3,0,0,1,344.8,173.8Z" transform="translate(-122 -171.4)"/><path class="e" d="M350.7,183.1V173a1.6,1.6,0,0,1,.4-1.2,1.2,1.2,0,0,1,1.8,0c.3.2.4.6.4,1.2v10.1c0,.6-.1,1-.4,1.2a1.2,1.2,0,0,1-1.8,0C350.8,184.1,350.7,183.7,350.7,183.1Z" transform="translate(-122 -171.4)"/><path class="e" d="M364.8,171.4a7.1,7.1,0,0,1,3.4.8,5.4,5.4,0,0,1,2.2,2.3,7.8,7.8,0,0,1,.7,3.5,8.6,8.6,0,0,1-.4,2.8,4.5,4.5,0,0,1-1.2,2.1,4.6,4.6,0,0,1-2,1.3,7.5,7.5,0,0,1-5.4,0,6.9,6.9,0,0,1-2-1.3,6.6,6.6,0,0,1-1.2-2.2,9.3,9.3,0,0,1,0-5.4,5.7,5.7,0,0,1,1.3-2.1,5,5,0,0,1,1.9-1.3A5.9,5.9,0,0,1,364.8,171.4Zm3.7,6.6a6,6,0,0,0-.5-2.4,3.4,3.4,0,0,0-1.3-1.6,3,3,0,0,0-1.9-.5,4,4,0,0,0-1.5.3,2.8,2.8,0,0,0-1.1.8,5.3,5.3,0,0,0-.8,1.5,10.1,10.1,0,0,0-.2,1.9,11.2,11.2,0,0,0,.2,2,5.3,5.3,0,0,0,.8,1.5,3.4,3.4,0,0,0,1.2.9l1.4.2a3.2,3.2,0,0,0,1.9-.5,3.2,3.2,0,0,0,1.3-1.5A6.7,6.7,0,0,0,368.5,178Z" transform="translate(-122 -171.4)"/><path class="e" d="M379.6,173l5.1,7.6v-7.7a1.6,1.6,0,0,1,.3-1.1,1,1,0,0,1,.9-.4.9.9,0,0,1,.8.4,1.2,1.2,0,0,1,.4,1.1V183c0,1.2-.5,1.7-1.4,1.7H385c-.2,0-.3-.2-.5-.3l-.5-.5-.4-.6-4.9-7.5v7.5a1.6,1.6,0,0,1-.3,1.1,1.2,1.2,0,0,1-1.8,0,1.6,1.6,0,0,1-.3-1.1v-9.9a2.8,2.8,0,0,1,.1-1,1.3,1.3,0,0,1,.6-.7l.8-.2h.6l.5.3.3.5A1.6,1.6,0,0,1,379.6,173Z" transform="translate(-122 -171.4)"/></svg>